# xmcd CD database file
#
# Track frame offsets:
#	150
#	18783
#	37099
#	51603
#	71890
#	90282
#	101866
#	123016
#	140788
#	160499
#	174384
#	188965
#
# Disc length: 2709 seconds
#
# Revision: 0
# Processed by: cddbd v1.5.1PL2 Copyright (c) Steve Scherf et al.
# Submitted via: CDex 1.50
#
DISCID=ab0a930c
DTITLE=Brian Letton - Today
DYEAR=2005
DGENRE=Country
TTITLE0=Two Chords
TTITLE1=On Your Wedding Day
TTITLE2=Roll With the Punches
TTITLE3=My Son
TTITLE4=Old Love New Love
TTITLE5=I Still Wonder
TTITLE6=We Thank The Roses
TTITLE7=Walking With Banjo
TTITLE8=The Pictures In My Wallet
TTITLE9=A Red Rose From The Blue Side Of Town
TTITLE10=Waltzing With Matilda
TTITLE11=The Carnival Is Over
EXTD=YEAR: 2005
EXTT0=
EXTT1=
EXTT2=
EXTT3=
EXTT4=
EXTT5=
EXTT6=
EXTT7=
EXTT8=
EXTT9=
EXTT10=
EXTT11=
PLAYORDER=
